<svg xmlns="http://www.w3.org/2000/svg" xmlns:xlink="http://www.w3.org/1999/xlink" width="1024" height="390" viewBox="0 0 1024 390">
  <switch>
    <g>
      <radialGradient id="a" cx="549.719" cy="284.778" r="117.019" gradientTransform="matrix(1.5794 0 0 .5042 -320.247 108.424)" gradientUnits="userSpaceOnUse">
        <stop offset="0" stop-color="#B3B3B3"/>
        <stop offset="1" stop-color="#E6E6E6" stop-opacity="0"/>
      </radialGradient>
      <path fill="url(#a)" d="M349 151h398v202H349z"/>
      <linearGradient id="b" gradientUnits="userSpaceOnUse" x1="510" y1="44.5" x2="510" y2="252.5">
        <stop offset="0" stop-color="#FFF"/>
        <stop offset=".534" stop-color="#F4F4F4"/>
        <stop offset="1" stop-color="#E6E6E6"/>
      </linearGradient>
      <path fill="url(#b)" stroke="#B3B3B3" stroke-miterlimit="10" d="M760.5 246.5c0 3.314-2.686 6-6 6h-489c-3.314 0-6-2.686-6-6v-196c0-3.314 2.686-6 6-6h489c3.314 0 6 2.686 6 6v196z"/>
      <linearGradient id="c" gradientUnits="userSpaceOnUse" x1="106" y1="387.5" x2="973" y2="387.5">
        <stop offset="0" stop-color="#E6E6E6" stop-opacity="0"/>
        <stop offset="1" stop-color="#E6E6E6" stop-opacity="0"/>
      </linearGradient>
      <path fill="url(#c)" d="M106 385h867v5H106z"/>
      <linearGradient id="d" gradientUnits="userSpaceOnUse" x1="370.5" y1="65" x2="759.5" y2="65">
        <stop offset="0" class="inner" stop-color="#F0D47B"/>
        <stop offset="1" class="outer" stop-color="#C08117"/>
      </linearGradient>
      <linearGradient id="e" gradientUnits="userSpaceOnUse" x1="370" y1="65" x2="760" y2="65">
        <stop offset="0" class="inner" stop-color="#F0D47B"/>
        <stop offset="1" class="outer" stop-color="#C08117"/>
      </linearGradient>
      <path fill="url(#d)" stroke="url(#e)" stroke-miterlimit="10" d="M759.5 84.5h-501v-34c0-3.314 3.686-5 7-5h490c3.314 0 5 1.686 5 5v34z"/>

      <linearGradient id="f" gradientUnits="userSpaceOnUse" x1="316.125" y1="10.417" x2="316.125" y2="270.5">
        <stop offset="0" class="inner" stop-color="#F0D47B"/>
        <stop offset="1" class="outer" stop-color="#C08117"/>
      </linearGradient>

      <linearGradient id="g" gradientUnits="userSpaceOnUse" x1="316.125" y1="26.583" x2="316.125" y2="254.333">
        <stop offset="0" class="outer" stop-color="#C08117"/>
        <stop offset="1" class="inner" stop-color="#F0D47B"/>
      </linearGradient>

      <defs>
        <circle id="h" cx="316.125" cy="140.458" r="110"/>
      </defs>
      <clipPath id="i">
        <use xlink:href="#h" overflow="visible"/>
      </clipPath>

      <linearGradient id="j" gradientUnits="userSpaceOnUse" x1="606" y1="104.5" x2="606" y2="133.5">
        <stop offset="0" stop-color="#E6E6E6"/>
        <stop offset=".198" stop-color="#EDEDED"/>
        <stop offset=".5" stop-color="#F3F3F3"/>
        <stop offset=".802" stop-color="#EDEDED"/>
        <stop offset="1" stop-color="#E6E6E6"/>
      </linearGradient>
      <path fill="url(#j)" stroke="#CCC" stroke-miterlimit="10" d="M747.5 126.5c0 3.314-3.694 7-7.018 7H290.684c-3.323 0-3.184-3.686-6.184-7v-15c0-3.314 2.86-7 6.184-7h450.798c3.323 0 7.018 3.686 7.018 7v15z"/>
      <path fill="#E6E6E6" stroke="#CCC" stroke-miterlimit="10" d="M747.5 126.5c0 3.314-3.694 7-7.018 7H715.5v-29h24.982c3.323 0 7.018 3.686 7.018 7v15z"/>
      <g fill="gray">
        <circle cx="731.537" cy="115.287" r="4.573"/>
        <path d="M731.5 122.15c-5.634 0-9.5 2.48-9.5 4.083V129h19v-2.787c0-1.602-3.866-4.064-9.5-4.064z"/>
      </g>
      <g>
        <linearGradient id="k" gradientUnits="userSpaceOnUse" x1="606" y1="155.5" x2="606" y2="184.5">
          <stop offset="0" stop-color="#E6E6E6"/>
          <stop offset=".198" stop-color="#EDEDED"/>
          <stop offset=".5" stop-color="#F3F3F3"/>
          <stop offset=".802" stop-color="#EDEDED"/>
          <stop offset="1" stop-color="#E6E6E6"/>
        </linearGradient>
        <path fill="url(#k)" stroke="#CCC" stroke-miterlimit="10" d="M747.5 177.5c0 3.314-3.694 7-7.018 7H290.684c-3.323 0-6.184-3.686-6.184-7v-15c0-3.314 2.86-7 6.184-7h429.798c3.323 0 7.018 3.686 7.018 7v15z"/>
        <path fill="#E6E6E6" stroke="#CCC" stroke-miterlimit="10" d="M747.5 177.5c0 3.314-3.694 7-7.018 7H715.5v-29h24.982c3.323 0 7.018 3.686 7.018 7v15z"/>
        <path fill="gray" d="M740.005 169H737v-2.595c0-2.12-.645-5.022-5.5-5.04s-5.5 2.92-5.5 5.04V169h-2.892c-.535 0-1.108.403-1.108.966v9.846c0 .563.573 1.188 1.108 1.188h16.9c.534 0 .994-.626.994-1.188v-9.846c0-.563-.46-.966-.995-.966zm-9.445 9l.53-3.09c-.336-.205-.564-.634-.564-1.072 0-.654.505-1.16 1.127-1.16s1.127.56 1.127 1.213c0 .41-.197.76-.497.973l.537 3.138h-2.26zm4.44-9h-7v-2.655c0-1.39.468-3.02 3.496-3.165 2.968.143 3.504 1.775 3.504 3.165V169z"/>
      </g>
      <g>
        <linearGradient id="l" gradientUnits="userSpaceOnUse" x1="510" y1="206" x2="510" y2="229">
          <stop offset="0" class="inner" stop-color="#F0D47B"/>
          <stop offset="1" class="outer" stop-color="#C08117"/>
        </linearGradient>
        <path fill="url(#l)" d="M556 223c0 3.314-2.686 6-6 6h-80c-3.314 0-6-2.686-6-6v-11c0-3.314 2.686-6 6-6h80c3.314 0 6 2.686 6 6v11z"/>
      </g>
      <g>
        <linearGradient id="m" gradientUnits="userSpaceOnUse" x1="510" y1="237.831" x2="510" y2="223.747" gradientTransform="rotate(180 510 221.916)">
          <stop offset="0" stop-color="#FFF" stop-opacity=".7"/>
          <stop offset="1" stop-color="#FFF" stop-opacity=".1"/>
        </linearGradient>
        <path opacity=".6" fill="url(#m)" d="M464 211.916c0-3.314 2.686-5.916 6-5.916h80c3.314 0 6 2.602 6 5.916 0 0 0 8.012-46 8.167-46 .154-46-8.167-46-8.167z"/>
        <path opacity=".2" fill="#FFF" d="M760 62H421.078s-3.703-4.906-7.516-9.25c-3.74-4.26-7.645-7.75-7.645-7.75H754.5c3.314 0 5.5 2.186 5.5 5.5V62z"/>
        <path opacity=".3" fill="#FFF" d="M712.167 85H565.5s17.333-6.667 33.5-17.5C616.054 56.072 622 45 622 45h132.5c2.544 0 4.547 1.297 5.234 3.625.098.332-14.654 4.964-26.068 13.25C721.113 70.99 712.166 85 712.166 85z"/>
      </g>
    </g>
  </switch>
</svg>
